<svg width="125" height="125" viewBox="0 0 125 125" fill="none" xmlns="http://www.w3.org/2000/svg">
<g filter="url(#filter0_i_6671_15940)">
<path fill-rule="evenodd" clip-rule="evenodd" d="M67.291 17.6579C67.2845 17.6546 67.278 17.6512 67.2715 17.6478Z" fill="url(#paint0_linear_6671_15940)"/>
<path fill-rule="evenodd" clip-rule="evenodd" d="M17.6579 57.709C17.6546 57.7155 17.6512 57.722 17.6478 57.7285Z" fill="url(#paint1_linear_6671_15940)"/>
<path fill-rule="evenodd" clip-rule="evenodd" d="M46.1294 25.6096C47.5856 24.1534 49.1867 22.9299 50.8874 21.9426C53.1384 20.6467 56.5067 18.6794 57.6306 17.7803C57.7432 17.6902 57.9251 17.5838 58.1543 17.4496C59.1975 16.8391 61.2197 15.6557 62.1391 12.8353C62.2852 12.388 62.8654 12.3884 63.0095 12.8353C64.0182 15.9665 66.3624 17.178 67.2715 17.6478C67.3739 17.7008 67.4586 17.7445 67.5205 17.7803C67.9262 18.0145 68.9119 18.6515 70.0229 19.3695C71.3741 20.2427 72.9116 21.2363 73.8141 21.7694V21.7749C75.6257 22.7905 77.3297 24.0689 78.8706 25.6096C82.755 29.494 84.9706 34.4155 85.5172 39.4828C90.5845 40.0294 95.506 42.245 99.3904 46.1294C100.847 47.5856 102.07 49.1867 103.057 50.8874C104.353 53.1384 106.321 56.5067 107.22 57.6306C107.31 57.7432 107.416 57.9251 107.55 58.1543C108.161 59.1975 109.344 61.2197 112.165 62.1391C112.612 62.2852 112.612 62.8654 112.165 63.0095C109.033 64.0182 107.822 66.3624 107.352 67.2715C107.299 67.374 107.255 67.4585 107.22 67.5205C106.986 67.9261 106.349 68.9117 105.631 70.0225C104.758 71.3737 103.764 72.9116 103.231 73.8141H103.225C102.21 75.6257 100.931 77.3297 99.3904 78.8706C95.506 82.755 90.5845 84.9706 85.5172 85.5172C84.9706 90.5845 82.755 95.506 78.8706 99.3904C77.4144 100.847 75.8133 102.07 74.1126 103.057C71.8616 104.353 68.4933 106.321 67.3694 107.22C67.2568 107.31 67.0749 107.416 66.8457 107.55C65.8025 108.161 63.7803 109.344 62.8609 112.165C62.7148 112.612 62.1346 112.612 61.9905 112.165C60.9818 109.033 58.6376 107.822 57.7285 107.352C57.626 107.299 57.5415 107.255 57.4795 107.22C57.0736 106.985 56.0871 106.348 54.9756 105.629C53.6244 104.756 52.0884 103.764 51.1859 103.231V103.225C49.3743 102.21 47.6703 100.931 46.1294 99.3904C42.245 95.506 40.0294 90.5845 39.4828 85.5172C34.4155 84.9706 29.494 82.755 25.6096 78.8706C24.1534 77.4144 22.9299 75.8133 21.9426 74.1126C20.6467 71.8616 18.6794 68.4933 17.7803 67.3694C17.6902 67.2568 17.5838 67.0749 17.4496 66.8457C16.8391 65.8025 15.6557 63.7803 12.8353 62.8609C12.388 62.7148 12.3884 62.1346 12.8353 61.9905C15.9665 60.9818 17.178 58.6376 17.6478 57.7285C17.7008 57.6261 17.7445 57.5414 17.7803 57.4795C18.0145 57.0738 18.6515 56.0881 19.3695 54.9771C20.2427 53.6259 21.2363 52.0884 21.7694 51.1859H21.7749C22.7905 49.3743 24.0689 47.6703 25.6096 46.1294C29.494 42.245 34.4155 40.0294 39.4828 39.4828C40.0294 34.4155 42.245 29.494 46.1294 25.6096Z" fill="url(#paint2_linear_6671_15940)"/>
</g>
<defs>
<filter id="filter0_i_6671_15940" x="12.5" y="6.78571" width="100" height="105.714" filterUnits="userSpaceOnUse" color-interpolation-filters="sRGB">
<feFlood flood-opacity="0" result="BackgroundImageFix"/>
<feBlend mode="normal" in="SourceGraphic" in2="BackgroundImageFix" result="shape"/>
<feColorMatrix in="SourceAlpha" type="matrix" values="0 0 0 0 0 0 0 0 0 0 0 0 0 0 0 0 0 0 127 0" result="hardAlpha"/>
<feOffset dy="-5.71429"/>
<feGaussianBlur stdDeviation="3.57143"/>
<feComposite in2="hardAlpha" operator="arithmetic" k2="-1" k3="1"/>
<feColorMatrix type="matrix" values="0 0 0 0 0.933333 0 0 0 0 0.47451 0 0 0 0 0.266667 0 0 0 1 0"/>
<feBlend mode="normal" in2="shape" result="effect1_innerShadow_6671_15940"/>
</filter>
<linearGradient id="paint0_linear_6671_15940" x1="62.5" y1="12.5" x2="62.5" y2="69.7687" gradientUnits="userSpaceOnUse">
<stop stop-color="#E6651B"/>
<stop offset="1" stop-color="#EFABC5"/>
</linearGradient>
<linearGradient id="paint1_linear_6671_15940" x1="62.5" y1="12.5" x2="62.5" y2="69.7687" gradientUnits="userSpaceOnUse">
<stop stop-color="#E6651B"/>
<stop offset="1" stop-color="#EFABC5"/>
</linearGradient>
<linearGradient id="paint2_linear_6671_15940" x1="62.5" y1="12.5" x2="62.5" y2="69.7687" gradientUnits="userSpaceOnUse">
<stop stop-color="#E6651B"/>
<stop offset="1" stop-color="#EFABC5"/>
</linearGradient>
</defs>
</svg>
